<?xml version="1.0" encoding="utf-8"?>
<!-- Generator: Adobe Illustrator 15.0.0, SVG Export Plug-In . SVG Version: 6.00 Build 0)  -->
<!DOCTYPE svg PUBLIC "-//W3C//DTD SVG 1.1//EN" "http://www.w3.org/Graphics/SVG/1.1/DTD/svg11.dtd">
<svg version="1.1" id="Capa_1" xmlns="http://www.w3.org/2000/svg" xmlns:xlink="http://www.w3.org/1999/xlink" x="0px" y="0px"
	 width="595.28px" height="841.89px" viewBox="0 0 595.28 841.89" enable-background="new 0 0 595.28 841.89" xml:space="preserve">
<polygon fill="#CD2725" stroke="#EA5556" stroke-width="12" stroke-linejoin="round" points="297.5,212.27 535.612,628.967 
	59.388,628.967 "/>
<path fill="#212121" stroke="#FFFFFF" stroke-width="6" stroke-linejoin="round" d="M267.736,346.208v-44.646h59.527v44.646h44.646
	c24.657,0,44.646,19.989,44.646,44.646l0,0v148.82c0,24.658-19.988,44.646-44.646,44.646l0,0H223.09
	c-24.657,0-44.646-19.988-44.646-44.646l0,0v-148.82c0-24.657,19.988-44.646,44.646-44.646l0,0H267.736z"/>
<text transform="matrix(1 0 0 1 229.2896 450.3828)" enable-background="new    "><tspan x="0" y="0" fill="#FFFFFF" font-family="'Arial-BoldMT'" font-size="89.292">O</tspan><tspan x="69.454" y="0" fill="#FFFFFF" font-family="'MyriadPro-Regular'" font-size="89.292">₂</tspan></text>
<path fill="#FFCC07" d="M276.665,471.217v41.67h-29.764l50.599,50.6l50.599-50.6h-29.764v-41.67H276.665z"/>
</svg>
